<?xml version="1.0" encoding="UTF-8"?>
<svg xmlns="http://www.w3.org/2000/svg" viewBox="0 0 1920 1080">
  <defs>
    <style>
      .cls-1 {
        fill: #4646d3;
      }

      .cls-1, .cls-2 {
        stroke-width: 0px;
      }

      .cls-3 {
        fill: none;
        stroke: #4646d3;
        stroke-miterlimit: 10;
        stroke-width: 10px;
      }

      .cls-2 {
        fill: #fff;
      }
    </style>
  </defs>
  <g id="Text">
    <g>
      <g>
        <path class="cls-2" d="M714.65,539.78v-82.41h35.55c24.35,0,40.34,17.47,40.34,41.21s-15.62,41.21-39.98,41.21h-35.92ZM736.79,477.05v43.05h12.55c12.92,0,17.83-9.35,17.83-21.53s-5.29-21.52-18.2-21.52h-12.18Z"/>
        <path class="cls-2" d="M796.45,509.4c0-18.45,11.81-31.61,30.38-31.61,20.79,0,29.77,13.9,29.77,28.54,0,2.95-.25,7.5-.62,8.98h-38.99c1.35,5.9,6.15,7.99,12.3,7.99s10.46-1.72,12.79-7.01l13.41,12.79c-4.67,6.03-12.67,11.93-26.57,11.93-20.91,0-32.47-13.16-32.47-31.61ZM816.62,503.86h20.17c-.37-6.15-3.2-9.59-9.84-9.59-6.03,0-9.84,3.2-10.33,9.59Z"/>
        <path class="cls-2" d="M864.59,539.78v-60.76h22.14v18.08c1.72-10.09,7.26-19.31,19.93-19.31,11.32,0,18.2,7.01,18.2,19.43v42.56h-22.14v-33.95c0-7.38-1.35-11.32-8-11.32s-8,2.34-8,12.18v33.09h-22.14Z"/>
        <path class="cls-2" d="M930.89,509.4c0-20.79,8.98-31.61,22.26-31.61s17.59,9.1,19.19,19.19v-39.61h22.14v82.41h-22.14v-17.71c-1.48,9.96-4.92,18.94-17.96,18.94-14.51,0-23.49-10.82-23.49-31.61ZM963.73,524.28c4.67,0,8.61-2.34,8.61-12.18v-5.41c0-9.84-4.18-12.18-9.1-12.18-6.76,0-9.84,5.9-9.84,14.88s3.2,14.88,10.33,14.88Z"/>
        <path class="cls-2" d="M1004.32,539.78v-60.76h22.14v20.54c1.85-10.46,7.63-21.77,20.05-21.77,10.58,0,14.51,6.64,14.51,16.73,0,7.38-2.46,13.65-4.18,16.73h-20.29c2.21-2.58,4.67-7.26,4.67-10.95,0-3.44-1.48-5.78-5.04-5.78-5.04,0-9.72,4.8-9.72,14.64v30.63h-22.14Z"/>
        <path class="cls-2" d="M1066.55,473.48v-16.11h22.14v16.11h-22.14ZM1066.55,539.78v-60.76h22.14v60.76h-22.14Z"/>
        <path class="cls-2" d="M1103.45,520.22v-24.48h-8.61v-16.73h8.61v-6.89l22.14-9.84v16.73h14.76v16.73h-14.76v21.28c0,3.2,1.6,4.8,4.43,4.8s5.9-1.97,7.87-5.04l6.03,16.6c-2.58,2.95-9.1,7.63-18.94,7.63-15.74,0-21.53-8.98-21.53-20.79Z"/>
        <path class="cls-2" d="M1150.07,473.48v-16.11h22.14v16.11h-22.14ZM1150.07,539.78v-60.76h22.14v60.76h-22.14Z"/>
        <path class="cls-2" d="M1179.59,509.4c0-18.08,12.18-31.61,31.61-31.61,13.53,0,24.11,7.01,28.41,16.36l-17.22,11.32c-1.72-6.27-5.04-9.35-10.21-9.35-5.78,0-10.09,4.06-10.09,13.28s4.3,13.28,10.09,13.28c5.29,0,8.49-3.07,10.21-9.35l17.22,11.32c-4.3,9.35-14.88,16.36-28.41,16.36-19.43,0-31.61-13.53-31.61-31.61Z"/>
        <path class="cls-2" d="M1266.06,539.78v-82.41h22.14v62.73h39.73v19.68h-61.87Z"/>
        <path class="cls-2" d="M1329.65,509.4c0-18.45,11.81-31.61,30.38-31.61,20.79,0,29.77,13.9,29.77,28.54,0,2.95-.25,7.5-.62,8.98h-38.99c1.35,5.9,6.15,7.99,12.3,7.99s10.46-1.72,12.79-7.01l13.41,12.79c-4.67,6.03-12.67,11.93-26.57,11.93-20.91,0-32.47-13.16-32.47-31.61ZM1349.82,503.86h20.17c-.37-6.15-3.2-9.59-9.84-9.59-6.03,0-9.84,3.2-10.33,9.59Z"/>
        <path class="cls-2" d="M1395.08,525.76c0-9.84,5.54-15.25,19.07-19.43l16.36-5.04c-.62-3.44-2.46-4.92-7.38-4.92-7.01,0-14.88,3.81-19.93,9.47l-9.84-16.24c7.63-6.89,18.33-11.81,31-11.81,15.62,0,25.21,7.63,25.21,23.25v18.33c0,2.71.74,3.57,2.95,3.57h3.57v16.85h-12.55c-6.89,0-13.65-2.95-13.65-11.56v-4.67c-1.85,7.87-6.52,17.59-18.94,17.59-8.86,0-15.87-4.43-15.87-15.37ZM1419.44,525.76c7.26,0,10.46-2.83,10.46-9.1v-1.84l-9.96,3.57c-4.18,1.48-5.17,2.71-5.17,4.3,0,1.97,1.48,3.08,4.67,3.08Z"/>
        <path class="cls-2" d="M1461.63,539.78v-60.76h22.14v20.54c1.84-10.46,7.63-21.77,20.05-21.77,10.58,0,14.51,6.64,14.51,16.73,0,7.38-2.46,13.65-4.18,16.73h-20.29c2.21-2.58,4.67-7.26,4.67-10.95,0-3.44-1.48-5.78-5.04-5.78-5.04,0-9.72,4.8-9.72,14.64v30.63h-22.14Z"/>
        <path class="cls-2" d="M1523.12,539.78v-60.76h22.14v18.08c1.72-10.09,7.26-19.31,19.93-19.31,11.32,0,18.2,7.01,18.2,19.43v42.56h-22.14v-33.95c0-7.38-1.35-11.32-8-11.32s-8,2.34-8,12.18v33.09h-22.14Z"/>
        <path class="cls-2" d="M1592.86,473.48v-16.11h22.14v16.11h-22.14ZM1592.86,539.78v-60.76h22.14v60.76h-22.14Z"/>
        <path class="cls-2" d="M1624.84,539.78v-60.76h22.14v18.08c1.72-10.09,7.26-19.31,19.93-19.31,11.32,0,18.2,7.01,18.2,19.43v42.56h-22.14v-33.95c0-7.38-1.35-11.32-8-11.32s-8,2.34-8,12.18v33.09h-22.14Z"/>
        <path class="cls-2" d="M1706.76,519.73c-.49.98-.86,2.09-.86,3.32,0,2.58,1.35,4.18,5.41,4.18h23.37c15.13,0,20.66,6.27,20.66,15.01,0,11.44-10.95,21.65-37.51,21.65-21.03,0-30.63-5.78-30.63-12.55,0-6.03,6.77-8.86,15.99-8.98-6.15-.98-11.32-3.57-11.32-9.84,0-6.76,6.27-11.93,12.05-14.39-6.4-3.94-10.09-10.21-10.09-17.83,0-13.41,11.32-22.51,28.29-22.51,3.44,0,6.52.37,9.47,1.11l2.21-14.76,18.45,6.15-11.93,12.05c6.4,3.94,10.09,10.21,10.09,17.96,0,13.41-11.32,22.51-28.29,22.51-5.9,0-11.07-1.11-15.38-3.07ZM1736.77,544.82c0-1.97-1.85-2.46-5.54-2.46h-26.2c-.12.37-.25.86-.25,1.48,0,3.32,3.81,5.17,15.5,5.17s16.48-1.48,16.48-4.18ZM1730.01,500.3c0-5.9-3.44-8.49-7.87-8.49s-7.87,2.58-7.87,8.49,3.44,8.49,7.87,8.49,7.87-2.58,7.87-8.49Z"/>
      </g>
      <g>
        <path class="cls-2" d="M714.65,607.42v-52.01h8.77v44.25h26.63v7.76h-35.4Z"/>
        <path class="cls-2" d="M751.53,588.55c0-11.88,7.37-19.72,18.01-19.72,11.33,0,17.62,7.53,17.62,18.01,0,1.4-.16,3.03-.31,3.8h-27.01c.47,6.75,4.42,10.4,10.4,10.4,6.6,0,9.55-3.42,10.94-6.6l5.36,5.59c-2.87,4.35-8,8.15-16.38,8.15-11.26,0-18.63-7.84-18.63-19.64ZM759.91,585.06h19.41c-.62-5.98-4.04-9.24-9.78-9.24-5.36,0-8.93,3.1-9.63,9.24Z"/>
        <path class="cls-2" d="M792.98,599.26c0-5.36,3.73-8.62,9.86-11.02l12.65-5.36c-.31-3.8-2.02-6.37-7.22-6.37s-9,2.95-11.18,6.91l-5.2-6.21c2.95-4.04,8.85-8.38,17.23-8.38,9.39,0,14.67,5.36,14.67,14.67v14.21c0,1.71.62,2.25,2.02,2.25h2.41v7.45h-5.36c-4.04,0-7.22-1.86-7.22-7.3v-2.79c-1.16,4.97-4.81,10.87-12.73,10.87-6.21,0-9.94-3.49-9.94-8.93ZM806.02,601.44c5.74,0,9.63-3.42,9.63-8.54v-4.04l-9.7,4.35c-3.26,1.48-4.58,2.79-4.58,4.74,0,2.17,1.47,3.49,4.66,3.49Z"/>
        <path class="cls-2" d="M834.9,607.42v-37.8h8.69v10.71c1.4-6.05,5.2-11.49,11.95-11.49,4.74,0,8.23,3.1,8.23,8.69,0,3.65-1.01,6.37-1.71,7.53h-8.93c1.24-1.24,2.41-3.73,2.41-5.9s-1.01-3.8-3.57-3.8c-4.35,0-8.38,4.97-8.38,11.26v20.8h-8.69Z"/>
        <path class="cls-2" d="M868.89,607.42v-37.8h8.69v10.32c1.4-5.98,5.28-11.1,12.81-11.1s11.88,4.42,11.88,12.26v26.31h-8.77v-23.68c0-4.66-1.55-7.84-7.37-7.84-6.37,0-8.54,4.11-8.54,10.32v21.19h-8.69Z"/>
        <path class="cls-2" d="M911.2,564.26v-8.85h8.69v8.85h-8.69ZM911.2,607.42v-37.8h8.69v37.8h-8.69Z"/>
        <path class="cls-2" d="M929.05,607.42v-37.8h8.69v10.32c1.4-5.98,5.28-11.1,12.81-11.1s11.88,4.42,11.88,12.26v26.31h-8.77v-23.68c0-4.66-1.55-7.84-7.37-7.84-6.37,0-8.54,4.11-8.54,10.32v21.19h-8.69Z"/>
        <path class="cls-2" d="M978.5,594.45c-.7,1.16-1.55,2.64-1.55,3.96,0,1.94,1.01,2.95,4.5,2.95h12.19c7.53,0,11.64,3.03,11.64,8.69,0,7.14-6.99,12.58-20.73,12.58-10.56,0-16.69-3.34-16.69-8.07,0-3.57,3.42-5.51,7.06-6.37-2.72-.78-4.5-2.56-4.5-5.43,0-3.42,2.95-6.75,6.44-9.16-3.8-2.33-6.13-6.29-6.13-11.1,0-8,6.37-13.66,15.68-13.66,2.41,0,4.58.39,6.52,1.09l1.86-9.08,8.38,2.87-7.06,7.76c3.73,2.41,5.9,6.29,5.9,11.02,0,8-6.29,13.58-15.6,13.58-2.95,0-5.67-.54-7.92-1.63ZM997.44,611.14c0-2.02-1.63-2.87-4.97-2.87h-15.76c-.85.85-1.79,2.1-1.79,3.42,0,2.79,3.11,4.43,10.01,4.43,8.15,0,12.5-1.79,12.5-4.97ZM993.79,582.5c0-4.74-3.26-7.37-7.37-7.37s-7.37,2.64-7.37,7.37,3.26,7.37,7.37,7.37,7.37-2.64,7.37-7.37Z"/>
        <path class="cls-2" d="M1029.89,607.42v-31.05h-5.82v-6.75h5.82v-2.33c0-7.84,4.81-12.65,12.81-12.65,5.51,0,9.16,2.72,10.71,4.74l-3.8,6.21c-1.4-2.25-3.65-3.96-6.52-3.96-3.18,0-4.5,1.71-4.5,4.81v3.18h11.02v6.75h-11.02v31.05h-8.69Z"/>
        <path class="cls-2" d="M1051.39,588.55c0-11.8,7.45-19.72,18.32-19.72s18.47,7.92,18.47,19.72-7.45,19.64-18.47,19.64-18.32-7.92-18.32-19.64ZM1079.33,588.55c0-8.77-3.88-12.5-9.55-12.5s-9.47,3.73-9.47,12.5,3.88,12.42,9.47,12.42,9.55-3.73,9.55-12.42Z"/>
        <path class="cls-2" d="M1095.63,607.42v-37.8h8.69v10.71c1.4-6.05,5.2-11.49,11.95-11.49,4.74,0,8.23,3.1,8.23,8.69,0,3.65-1.01,6.37-1.71,7.53h-8.93c1.24-1.24,2.41-3.73,2.41-5.9s-1.01-3.8-3.57-3.8c-4.35,0-8.38,4.97-8.38,11.26v20.8h-8.69Z"/>
        <path class="cls-2" d="M1146.79,607.42v-52.01h8.77v21.58h25v-21.58h8.77v52.01h-8.77v-22.67h-25v22.67h-8.77Z"/>
        <path class="cls-2" d="M1199.26,595.93v-26.31h8.69v23.68c0,4.66,1.55,7.84,7.37,7.84,6.37,0,8.54-4.11,8.54-10.32v-21.19h8.77v37.8h-8.77v-10.32c-1.4,5.98-5.28,11.1-12.81,11.1s-11.8-4.43-11.8-12.27Z"/>
        <path class="cls-2" d="M1241.8,607.42v-37.8h8.69v10.32c1.4-5.98,5.12-11.1,12.27-11.1s10.63,4.04,11.02,11.18c1.32-5.98,5.05-11.18,12.27-11.18s11.02,4.42,11.02,12.26v26.31h-8.69v-23.68c0-5.2-2.17-7.84-7.3-7.84s-7.3,4.11-7.3,10.32v21.19h-8.69v-23.68c0-5.2-2.17-7.84-7.3-7.84s-7.3,4.11-7.3,10.32v21.19h-8.69Z"/>
        <path class="cls-2" d="M1304.13,599.26c0-5.36,3.73-8.62,9.86-11.02l12.65-5.36c-.31-3.8-2.02-6.37-7.22-6.37s-9,2.95-11.18,6.91l-5.2-6.21c2.95-4.04,8.85-8.38,17.23-8.38,9.39,0,14.67,5.36,14.67,14.67v14.21c0,1.71.62,2.25,2.02,2.25h2.41v7.45h-5.36c-4.04,0-7.22-1.86-7.22-7.3v-2.79c-1.16,4.97-4.81,10.87-12.73,10.87-6.21,0-9.94-3.49-9.94-8.93ZM1317.17,601.44c5.74,0,9.63-3.42,9.63-8.54v-4.04l-9.7,4.35c-3.26,1.48-4.58,2.79-4.58,4.74,0,2.17,1.47,3.49,4.66,3.49Z"/>
        <path class="cls-2" d="M1346.05,607.42v-37.8h8.69v10.32c1.4-5.98,5.28-11.1,12.81-11.1s11.88,4.42,11.88,12.26v26.31h-8.77v-23.68c0-4.66-1.55-7.84-7.37-7.84-6.37,0-8.54,4.11-8.54,10.32v21.19h-8.69Z"/>
        <path class="cls-2" d="M1384.4,598.95l5.12-5.43c2.1,3.8,6.75,7.69,13.51,7.69,3.73,0,6.13-1.32,6.13-4.04s-2.87-3.73-7.06-4.74l-5.05-1.24c-5.98-1.4-11.49-4.04-11.49-10.95s5.67-11.33,14.36-11.33c8.07,0,13.74,3.88,16.07,8.15l-5.12,5.43c-2.64-4.19-6.68-6.68-11.57-6.68-3.34,0-5.59,1.4-5.59,3.96,0,2.72,2.02,3.73,7.14,5.05l4.58,1.16c8.46,2.17,11.57,5.59,11.57,11.02,0,7.45-6.29,11.18-14.28,11.18s-15.45-3.26-18.32-9.24Z"/>
      </g>
    </g>
  </g>
  <g id="Logo">
    <g>
      <circle class="cls-1" cx="378.27" cy="631.27" r="12.05"/>
      <circle class="cls-1" cx="286.1" cy="620.43" r="12.05"/>
      <circle class="cls-1" cx="257.18" cy="569.22" r="12.05"/>
      <circle class="cls-1" cx="177.05" cy="503.55" r="12.05"/>
      <circle class="cls-1" cx="257.18" cy="385.47" r="12.05"/>
      <circle class="cls-1" cx="429.48" cy="356.55" r="12.05"/>
      <circle class="cls-1" cx="556.6" cy="426.44" r="12.05"/>
      <circle class="cls-1" cx="556.6" cy="632.48" r="12.05"/>
      <circle class="cls-1" cx="610.82" cy="511.99" r="12.05"/>
      <circle class="cls-1" cx="449.36" cy="675.25" r="12.05"/>
      <circle class="cls-1" cx="450.57" cy="445.11" r="12.05"/>
      <circle class="cls-1" cx="514.43" cy="518.01" r="12.05"/>
      <circle class="cls-1" cx="483.7" cy="625.25" r="12.05"/>
      <circle class="cls-1" cx="349.35" cy="558.38" r="12.05"/>
      <circle class="cls-1" cx="315.01" cy="444.51" r="12.05"/>
      <circle class="cls-1" cx="446.35" cy="723.45" r="12.05"/>
      <circle class="cls-1" cx="515.03" cy="690.92" r="12.05"/>
      <circle class="cls-1" cx="609.62" cy="608.38" r="12.05"/>
      <circle class="cls-1" cx="504.19" cy="376.43" r="12.05"/>
      <circle class="cls-1" cx="337.91" cy="356.55" r="12.05"/>
      <circle class="cls-1" cx="192.71" cy="426.44" r="12.05"/>
      <circle class="cls-1" cx="203.56" cy="546.33" r="12.05"/>
      <circle class="cls-1" cx="434.9" cy="566.81" r="12.05"/>
      <circle class="cls-1" cx="393.33" cy="496.92" r="12.05"/>
      <circle class="cls-1" cx="262.6" cy="491.5" r="12.05"/>
      <polygon class="cls-3" points="257.18 385.47 192.71 426.44 177.05 503.55 203.56 546.33 257.18 569.22 286.1 620.43 378.27 631.27 446.35 723.45 449.36 675.25 515.03 690.92 556.6 632.48 609.62 608.38 610.82 511.99 556.6 426.44 504.19 376.43 429.48 356.55 337.91 356.55 257.18 385.47"/>
      <polyline class="cls-3" points="314.61 441.5 337.91 356.55 450.57 445.11 429.48 356.55"/>
      <polyline class="cls-3" points="610.82 511.99 514.43 518.01 556.6 426.44 450.57 445.11 504.19 376.43"/>
      <polyline class="cls-3" points="609.62 608.38 514.43 518.01 556.6 632.48 483.7 625.25 515.03 690.92"/>
      <polygon class="cls-3" points="449.36 675.25 483.7 625.25 378.27 631.27 449.36 675.25"/>
      <polygon class="cls-3" points="483.7 625.25 514.43 518.01 434.9 566.81 483.7 625.25"/>
      <polygon class="cls-3" points="393.33 496.92 450.57 445.11 514.43 518.01 393.33 496.92"/>
      <polyline class="cls-3" points="434.9 566.81 393.33 496.92 349.35 558.38 434.9 566.81 378.27 631.27 349.35 558.38 286.1 620.43"/>
      <polygon class="cls-3" points="257.18 569.22 349.35 558.38 262.6 491.5 257.18 569.22"/>
      <polyline class="cls-3" points="203.56 546.33 262.6 491.5 177.05 503.55"/>
      <polyline class="cls-3" points="192.71 426.44 262.6 491.5 257.18 385.47 315.01 444.51 450.57 445.11"/>
      <polygon class="cls-3" points="315.01 444.51 393.33 496.92 262.6 491.5 315.01 444.51"/>
    </g>
  </g>
</svg>